<svg width="34" height="33" viewBox="0 0 34 33" fill="none" xmlns="http://www.w3.org/2000/svg">
    <path fillRule="evenodd" clipRule="evenodd" d="M15.1251 1.9347C16.1571 -0.0132954 17.8411 -0.0212954 18.8771 1.9347L33.1251 28.8507C34.1571 30.7987 33.2151 32.3927 31.0111 32.3927H2.99112C0.787122 32.3927 -0.158878 30.8067 0.877122 28.8507L15.1251 1.9347ZM15.5869 21.4149C15.962 21.79 16.4707 22.0007 17.0011 22.0007C17.5316 22.0007 18.0403 21.79 18.4153 21.4149C18.7904 21.0398 19.0011 20.5311 19.0011 20.0007V10.0007C19.0011 9.47027 18.7904 8.96156 18.4153 8.58649C18.0403 8.21142 17.5316 8.0007 17.0011 8.0007C16.4707 8.0007 15.962 8.21142 15.5869 8.58649C15.2118 8.96156 15.0011 9.47027 15.0011 10.0007V20.0007C15.0011 20.5311 15.2118 21.0398 15.5869 21.4149ZM15.5869 27.4149C15.962 27.79 16.4707 28.0007 17.0011 28.0007C17.5316 28.0007 18.0403 27.79 18.4153 27.4149C18.7904 27.0398 19.0011 26.5311 19.0011 26.0007C19.0011 25.4703 18.7904 24.9616 18.4153 24.5865C18.0403 24.2114 17.5316 24.0007 17.0011 24.0007C16.4707 24.0007 15.962 24.2114 15.5869 24.5865C15.2118 24.9616 15.0011 25.4703 15.0011 26.0007C15.0011 26.5311 15.2118 27.0398 15.5869 27.4149Z" fill="#FF2843" />
  </svg>