<svg width="34" height="34" viewBox="0 0 34 34" fill="none" xmlns="http://www.w3.org/2000/svg">
    <path fillRule="evenodd" clipRule="evenodd" d="M18.5315 0.965144C19.0174 1.1665 19.4589 1.46162 19.8307 1.83364L32.1667 14.1676C32.5391 14.5395 32.8344 14.9811 33.036 15.4672C33.2375 15.9534 33.3412 16.4744 33.3412 17.0006C33.3412 17.5269 33.2375 18.0479 33.036 18.534C32.8344 19.0202 32.5391 19.4618 32.1667 19.8336L19.8307 32.1676C19.4589 32.5397 19.0174 32.8348 18.5315 33.0361C18.0456 33.2375 17.5247 33.3411 16.9987 33.3411C16.4728 33.3411 15.9519 33.2375 15.466 33.0361C14.9801 32.8348 14.5386 32.5397 14.1667 32.1676L1.83074 19.8336C1.45841 19.4618 1.16304 19.0202 0.961509 18.534C0.75998 18.0479 0.65625 17.5269 0.65625 17.0006C0.65625 16.4744 0.75998 15.9534 0.961509 15.4672C1.16304 14.9811 1.45841 14.5395 1.83074 14.1676L14.1667 1.83364C14.5386 1.46162 14.9801 1.1665 15.466 0.965144C15.9519 0.763793 16.4728 0.660156 16.9987 0.660156C17.5247 0.660156 18.0456 0.763793 18.5315 0.965144ZM15.5845 20.4138C15.9596 20.7889 16.4683 20.9996 16.9987 20.9996C17.5292 20.9996 18.0379 20.7889 18.4129 20.4138C18.788 20.0388 18.9987 19.5301 18.9987 18.9996V8.99963C18.9987 8.4692 18.788 7.96049 18.4129 7.58542C18.0379 7.21035 17.5292 6.99963 16.9987 6.99963C16.4683 6.99963 15.9596 7.21035 15.5845 7.58542C15.2094 7.96049 14.9987 8.4692 14.9987 8.99963V18.9996C14.9987 19.5301 15.2094 20.0388 15.5845 20.4138ZM15.5845 26.4138C15.9596 26.7889 16.4683 26.9996 16.9987 26.9996C17.5292 26.9996 18.0379 26.7889 18.4129 26.4138C18.788 26.0388 18.9987 25.5301 18.9987 24.9996C18.9987 24.4692 18.788 23.9605 18.4129 23.5854C18.0379 23.2103 17.5292 22.9996 16.9987 22.9996C16.4683 22.9996 15.9596 23.2103 15.5845 23.5854C15.2094 23.9605 14.9987 24.4692 14.9987 24.9996C14.9987 25.5301 15.2094 26.0388 15.5845 26.4138Z" fill="#FFA600" />
  </svg>