<svg width="20" height="20" viewBox="0 0 20 20" fill="none" xmlns="http://www.w3.org/2000/svg">
<rect width="20" height="20" rx="2" fill="#808080" fill-opacity="0.1"/>
<path d="M8.69203 12.3041H10.548L10.612 11.6161C10.644 11.0561 11.284 10.5761 11.924 9.96808C12.644 9.28008 13.348 8.44808 13.348 7.20008C13.348 5.10408 11.748 4.08008 9.95603 4.08008C8.62803 4.08008 7.41203 4.65608 6.67603 5.55208L8.19603 6.94408C8.58003 6.41608 9.18803 6.08008 9.79603 6.08008C10.548 6.08008 11.06 6.52808 11.06 7.32808C11.06 8.04808 10.548 8.62408 10.052 9.16808C9.39603 9.84008 8.67603 10.4961 8.69203 11.5041V12.3041ZM9.66803 16.1441C10.372 16.1441 10.964 15.5681 10.964 14.8481C10.964 14.1441 10.372 13.5681 9.66803 13.5681C8.93203 13.5681 8.34003 14.1441 8.34003 14.8481C8.34003 15.5681 8.93203 16.1441 9.66803 16.1441Z" fill="#808080"/>
</svg>
