<svg width="160" height="48" viewBox="0 0 160 48" fill="none" xmlns="http://www.w3.org/2000/svg">
    <path d="M28.9321 29.084C30.6681 29.084 32.2641 28.104 32.2641 26.284C32.2641 24.422 30.8501 23.974 29.1841 23.316C27.9381 22.84 27.0421 22.49 27.0561 21.538C27.0701 20.586 27.8961 20.082 28.8341 20.082C29.5761 20.082 30.4301 20.432 31.2281 21.09L31.9701 20.124C31.0321 19.368 29.9401 18.962 28.8341 18.962C27.1261 18.962 25.7961 20.11 25.7961 21.594C25.7961 23.344 27.2941 23.974 28.7641 24.52C30.0941 25.024 30.9901 25.318 30.9901 26.424C30.9901 27.39 30.1641 27.95 28.9461 27.95C27.9801 27.95 26.9161 27.502 26.2021 26.606L25.4181 27.544C26.4121 28.608 27.6861 29.084 28.9321 29.084ZM34.0152 29H35.1492V25.57C35.1492 24.03 35.9892 23.134 37.3472 23.134C38.3412 23.134 39.0272 23.694 39.0272 25.234V29H40.1612V24.912C40.1612 22.966 39.1532 22.098 37.6832 22.098C36.5912 22.098 35.6952 22.56 35.1632 23.372H35.1492V18.696H34.0152V29ZM42.8079 20.936C43.2699 20.936 43.6339 20.572 43.6339 20.124C43.6339 19.676 43.2699 19.312 42.8079 19.312C42.3459 19.312 41.9819 19.676 41.9819 20.124C41.9819 20.572 42.3459 20.936 42.8079 20.936ZM42.2339 29H43.3679V22.182H42.2339V29ZM45.8616 29H46.9956V23.162H48.9276V22.182H46.9956V20.908C46.9956 20.012 47.3596 19.648 47.9196 19.648C48.2976 19.648 48.6756 19.788 49.1096 20.012L49.3616 19.046C48.9836 18.808 48.4656 18.598 47.7796 18.598C46.5616 18.598 45.8616 19.34 45.8616 20.796V22.182H45.0356V23.162H45.8616V29ZM52.0933 29.084C52.9053 29.084 53.3673 28.888 53.7453 28.664L53.4513 27.67C53.1153 27.852 52.6953 28.02 52.2893 28.02C51.6453 28.02 51.4633 27.628 51.4633 26.802V23.162H53.7173V22.182H51.4633V19.732L50.3293 19.858V22.182H49.4473V23.162H50.3293V26.97C50.3293 28.342 50.8893 29.084 52.0933 29.084Z" fill="#0A0A0A"/>
    <rect x="9.5" y="6" width="60" height="36" rx="7" stroke="#0A0A0A" stroke-width="2"/>
    <path d="M88.5 30V18M94.5 24H82.5" stroke="#0A0A0A" stroke-width="2" stroke-linecap="round" stroke-linejoin="round"/>
    <rect x="122.5" y="1" width="28" height="46" rx="12" stroke="#0A0A0A" stroke-width="2"/>
    <path d="M135.5 1H137.5V25C137.5 25.5523 137.052 26 136.5 26C135.948 26 135.5 25.5523 135.5 25V1Z" fill="#0A0A0A"/>
    <rect x="133.5" y="8" width="6" height="10" rx="3" fill="#A4A9B4" stroke="#0A0A0A" stroke-width="2"/>
    <path d="M111.319 9.00016L111.319 21" stroke="#00D180" stroke-width="2" stroke-linecap="round" stroke-linejoin="round"/>
    <path d="M106.5 13.8398L111.319 8.99991L116.139 13.8398" stroke="#00D180" stroke-width="2" stroke-linecap="round" stroke-linejoin="round"/>
    <path d="M111.32 42.9998L111.32 31" stroke="#00D180" stroke-width="2" stroke-linecap="round" stroke-linejoin="round"/>
    <path d="M116.139 38.1602L111.32 43.0001L106.5 38.1602" stroke="#00D180" stroke-width="2" stroke-linecap="round" stroke-linejoin="round"/>
</svg>
