<svg width="12" height="13" viewBox="0 0 12 13" fill="none" xmlns="http://www.w3.org/2000/svg">
    <g clip-path="url(#clip0_13468_1889)">
        <path fill-rule="evenodd" clip-rule="evenodd" d="M5.31992 1.03374C5.69421 0.301456 6.30497 0.298448 6.68071 1.03374L11.8483 11.1519C12.2226 11.8842 11.8809 12.4834 11.0815 12.4834H0.91908C0.119719 12.4834 -0.223382 11.8872 0.152361 11.1519L5.31992 1.03374ZM5.4874 8.35667C5.62343 8.49767 5.80793 8.57688 6.00031 8.57688C6.1927 8.57688 6.3772 8.49767 6.51323 8.35667C6.64926 8.21567 6.72569 8.02444 6.72569 7.82504V4.06588C6.72569 3.86648 6.64926 3.67525 6.51323 3.53425C6.3772 3.39326 6.1927 3.31405 6.00031 3.31405C5.80793 3.31405 5.62343 3.39326 5.4874 3.53425C5.35136 3.67525 5.27494 3.86648 5.27494 4.06588V7.82504C5.27494 8.02444 5.35136 8.21567 5.4874 8.35667ZM5.4874 10.6122C5.62343 10.7532 5.80793 10.8324 6.00031 10.8324C6.1927 10.8324 6.3772 10.7532 6.51323 10.6122C6.64926 10.4712 6.72569 10.2799 6.72569 10.0805C6.72569 9.88114 6.64926 9.68991 6.51323 9.54891C6.3772 9.40792 6.1927 9.32871 6.00031 9.32871C5.80793 9.32871 5.62343 9.40792 5.4874 9.54891C5.35136 9.68991 5.27494 9.88114 5.27494 10.0805C5.27494 10.2799 5.35136 10.4712 5.4874 10.6122Z" fill="#FF2843"/>
    </g>
    <defs>
        <clipPath id="clip0_13468_1889">
            <rect width="12" height="12" fill="white" transform="translate(0 0.483398)"/>
        </clipPath>
    </defs>
</svg>
