<svg width="84" height="84" viewBox="0 0 84 84" fill="none" xmlns="http://www.w3.org/2000/svg">
<path d="M42 79.66C38.185 79.66 34.405 78.54 31.43 76.335L16.38 65.1C12.39 62.125 9.27499 55.895 9.27499 50.96V24.92C9.27499 19.53 13.23 13.79 18.305 11.9L35.77 5.35504C39.235 4.06004 44.695 4.06004 48.16 5.35504L65.625 11.9C70.7 13.79 74.655 19.53 74.655 24.92V50.925C74.655 55.895 71.54 62.09 67.55 65.065L52.5 76.3C49.595 78.54 45.815 79.66 42 79.66ZM37.625 10.29L20.16 16.835C17.185 17.955 14.56 21.735 14.56 24.955V50.96C14.56 54.285 16.905 58.94 19.53 60.9L34.58 72.135C38.605 75.145 45.395 75.145 49.455 72.135L64.505 60.9C67.165 58.905 69.475 54.285 69.475 50.96V24.92C69.475 21.735 66.85 17.955 63.875 16.8L46.41 10.255C44.03 9.41504 39.97 9.41504 37.625 10.29Z" fill="#FF2843"/>
<path d="M42 48.125C40.565 48.125 39.375 46.935 39.375 45.5V28C39.375 26.565 40.565 25.375 42 25.375C43.435 25.375 44.625 26.565 44.625 28V45.5C44.625 46.935 43.435 48.125 42 48.125Z" fill="#FF2843"/>
<path d="M42 59.4996C41.545 59.4996 41.09 59.3946 40.67 59.2196C40.25 59.0446 39.865 58.7996 39.515 58.4846C39.2 58.1346 38.955 57.7846 38.78 57.3296C38.605 56.9096 38.5 56.4546 38.5 55.9996C38.5 55.5446 38.605 55.0896 38.78 54.6696C38.955 54.2496 39.2 53.8646 39.515 53.5146C39.865 53.1996 40.25 52.9546 40.67 52.7796C41.51 52.4296 42.49 52.4296 43.33 52.7796C43.75 52.9546 44.135 53.1996 44.485 53.5146C44.8 53.8646 45.045 54.2496 45.22 54.6696C45.395 55.0896 45.5 55.5446 45.5 55.9996C45.5 56.4546 45.395 56.9096 45.22 57.3296C45.045 57.7846 44.8 58.1346 44.485 58.4846C44.135 58.7996 43.75 59.0446 43.33 59.2196C42.91 59.3946 42.455 59.4996 42 59.4996Z" fill="#FF2843"/>
</svg>
