<svg width="32" height="32" viewBox="0 0 32 32" fill="none" xmlns="http://www.w3.org/2000/svg">
<g clip-path="url(#clip0_16057_13200)">
<path fill-rule="evenodd" clip-rule="evenodd" d="M14.1864 1.46758C15.1846 -0.485181 16.8133 -0.493201 17.8152 1.46758L31.5954 28.4493C32.5935 30.4021 31.6824 32 29.5508 32H2.45088C0.319251 32 -0.595685 30.4101 0.406297 28.4493L14.1864 1.46758ZM14.6331 20.9954C14.9958 21.3714 15.4878 21.5826 16.0008 21.5826C16.5139 21.5826 17.0059 21.3714 17.3686 20.9954C17.7314 20.6194 17.9352 20.1094 17.9352 19.5777V9.55328C17.9352 9.02156 17.7314 8.51161 17.3686 8.13562C17.0059 7.75963 16.5139 7.5484 16.0008 7.5484C15.4878 7.5484 14.9958 7.75963 14.6331 8.13562C14.2703 8.51161 14.0665 9.02156 14.0665 9.55328V19.5777C14.0665 20.1094 14.2703 20.6194 14.6331 20.9954ZM14.6331 27.01C14.9958 27.386 15.4878 27.5973 16.0008 27.5973C16.5139 27.5973 17.0059 27.386 17.3686 27.01C17.7314 26.6341 17.9352 26.1241 17.9352 25.5924C17.9352 25.0606 17.7314 24.5507 17.3686 24.1747C17.0059 23.7987 16.5139 23.5875 16.0008 23.5875C15.4878 23.5875 14.9958 23.7987 14.6331 24.1747C14.2703 24.5507 14.0665 25.0606 14.0665 25.5924C14.0665 26.1241 14.2703 26.6341 14.6331 27.01Z" fill="#FF2843"/>
</g>
<defs>
<clipPath id="clip0_16057_13200">
<rect width="32" height="32" fill="white"/>
</clipPath>
</defs>
</svg>
