<svg xmlns="http://www.w3.org/2000/svg" width="80" height="80" fill="none"><path fill="#E45C51" d="M40.117 78.749c-3.927 0-7.819-1.153-10.882-3.423L13.741 61.884c-4.108-3.063-7.315-9.477-7.315-14.558V22.392c0-5.55 4.072-11.459 9.296-13.405L33.704 2.25c3.568-1.333 9.19-1.333 12.756 0L64.44 8.987c5.225 1.946 9.297 7.856 9.297 13.405V47.29c0 5.117-3.207 11.495-7.315 14.558L50.928 75.29c-2.991 2.306-6.883 3.459-10.81 3.459Z"/><path stroke="#fff" stroke-linecap="round" stroke-linejoin="round" stroke-width="6.5" d="M39.984 20.999v22.223"/><path stroke="#fff" stroke-linecap="round" stroke-linejoin="round" stroke-width="8" d="M39.958 56.556h.041"/></svg>
