<svg width="86" height="18" viewBox="0 0 86 18" fill="none" xmlns="http://www.w3.org/2000/svg">
<rect x="0.5" width="85" height="18" rx="4" fill="white" fill-opacity="0.2"/>
<path d="M8.47972 14.117C9.80572 14.117 10.7417 13.675 11.3137 13.012L10.0657 11.712C9.70172 12.102 9.28572 12.31 8.71372 12.31C7.82972 12.31 7.20572 11.725 7.20572 10.828C7.20572 9.931 7.81672 9.333 8.70072 9.333C9.16872 9.333 9.66272 9.541 9.96172 9.931L11.2747 8.631C10.5727 7.838 9.50672 7.526 8.53172 7.526C6.50372 7.526 5.15172 8.852 5.15172 10.841C5.15172 12.791 6.55572 14.117 8.47972 14.117ZM12.2557 14H14.2837V10.789C14.2837 9.801 14.7517 9.333 15.4667 9.333C16.1817 9.333 16.5327 9.645 16.5327 10.672V14H18.5607V10.165C18.5607 8.163 17.5857 7.526 16.2727 7.526C15.4927 7.526 14.8037 7.812 14.3097 8.371L14.2837 8.358V4.432H12.2557V14ZM25.9566 10.75C25.9566 8.865 24.6436 7.526 22.8496 7.526C20.9256 7.526 19.5736 8.891 19.5736 10.815C19.5736 12.791 20.9776 14.117 22.9016 14.117C24.3446 14.117 25.2286 13.636 25.7616 12.973L24.5916 11.777C24.1626 12.258 23.6296 12.453 23.1096 12.466C22.3296 12.466 21.7186 12.089 21.5886 11.361H25.9176C25.9306 11.231 25.9566 10.932 25.9566 10.75ZM22.8236 9.138C23.4346 9.138 23.8506 9.528 23.9806 10.152H21.6016C21.7316 9.515 22.1996 9.138 22.8236 9.138ZM30.0491 14.117C31.3751 14.117 32.3111 13.675 32.8831 13.012L31.6351 11.712C31.2711 12.102 30.8551 12.31 30.2831 12.31C29.3991 12.31 28.7751 11.725 28.7751 10.828C28.7751 9.931 29.3861 9.333 30.2701 9.333C30.7381 9.333 31.2321 9.541 31.5311 9.931L32.8441 8.631C32.1421 7.838 31.0761 7.526 30.1011 7.526C28.0731 7.526 26.7211 8.852 26.7211 10.841C26.7211 12.791 28.1251 14.117 30.0491 14.117ZM33.825 14H35.827V12.206L36.464 11.504L37.881 14H40.13L37.92 10.178L40.065 7.643H37.712L35.853 9.931H35.827V4.432H33.825V14ZM40.9502 14H43.0952V8.462H43.1212L46.7352 14H48.8932V4.77H46.7482V10.451L46.7222 10.464L43.0432 4.77H40.9502V14ZM50.5605 14H52.6795V10.711H56.0855V8.787H52.6795V6.707H56.8005V4.77H50.5605V14ZM59.8974 14H62.1074V6.707H64.5254V4.77H57.4924V6.707H59.8974V14ZM65.4354 14.117C66.0724 14.117 66.6054 13.61 66.6054 12.973C66.6054 12.336 66.0724 11.816 65.4354 11.816C64.7854 11.816 64.2654 12.336 64.2654 12.973C64.2654 13.61 64.7854 14.117 65.4354 14.117ZM68.9529 6.85C69.6549 6.85 70.1749 6.343 70.1749 5.68C70.1749 5.043 69.6549 4.536 68.9529 4.536C68.2509 4.536 67.7439 5.056 67.7439 5.68C67.7439 6.343 68.2509 6.85 68.9529 6.85ZM67.9389 14H69.9669V7.643H67.9389V14ZM75.9913 14.117C78.7473 14.117 80.7363 12.206 80.7363 9.385C80.7363 6.551 78.7473 4.64 75.9913 4.64C73.1833 4.64 71.2333 6.603 71.2333 9.385C71.2333 12.167 73.1833 14.117 75.9913 14.117ZM75.9913 12.102C74.5353 12.102 73.5083 10.893 73.5083 9.385C73.5083 7.877 74.5353 6.668 75.9913 6.668C77.4213 6.668 78.4613 7.851 78.4613 9.385C78.4613 10.919 77.4213 12.102 75.9913 12.102Z" fill="white"/>
</svg>
