<svg width="20" height="21" viewBox="0 0 20 21" fill="none" xmlns="http://www.w3.org/2000/svg">
<path d="M18.5 8.69H15.61C13.24 8.69 11.31 6.76 11.31 4.39V1.5C11.31 0.95 10.86 0.5 10.31 0.5H6.07C2.99 0.5 0.5 2.5 0.5 6.07V14.93C0.5 18.5 2.99 20.5 6.07 20.5H13.93C17.01 20.5 19.5 18.5 19.5 14.93V9.69C19.5 9.14 19.05 8.69 18.5 8.69Z" fill="#E6E6E6"/>
<path d="M8.06308 11.4697L5.1792 14.1518L8.06308 17.0357" stroke="#808080" stroke-width="1.25" stroke-linecap="round" stroke-linejoin="round"/>
<path d="M12.1464 11.4697L15.0303 14.1518L12.1464 17.0357" stroke="#808080" stroke-width="1.25" stroke-linecap="round" stroke-linejoin="round"/>
<path d="M13.8002 0.709993C13.3902 0.299993 12.6802 0.579993 12.6802 1.14999V4.63999C12.6802 6.09999 13.9202 7.30999 15.4302 7.30999C16.3802 7.31999 17.7002 7.31999 18.8302 7.31999C19.4002 7.31999 19.7002 6.64999 19.3002 6.24999C17.8602 4.79999 15.2802 2.18999 13.8002 0.709993Z" fill="#E6E6E6"/>
</svg>
