<svg width="85" height="16" viewBox="0 0 85 16" fill="none" xmlns="http://www.w3.org/2000/svg">
<path d="M2.16729 15.3109C1.49813 14.9414 0.968789 14.442 0.579276 13.8028C0.189763 13.1636 0 12.4545 0 11.6655C0 10.8864 0.189763 10.1773 0.579276 9.53812C0.968789 8.89892 1.49813 8.38955 2.16729 8.02002C2.83645 7.65048 3.57553 7.4707 4.38452 7.4707C5.19351 7.4707 5.9226 7.66047 6.57179 8.03999C7.22097 8.41952 7.73034 8.95884 8.08989 9.63799L6.49189 10.7366C5.97253 9.84773 5.26342 9.40828 4.38452 9.40828C3.95506 9.40828 3.57553 9.49817 3.24594 9.68793C2.90637 9.87769 2.64669 10.1374 2.45693 10.4869C2.26717 10.8265 2.17728 11.226 2.17728 11.6754C2.17728 12.3446 2.38702 12.8939 2.7965 13.3034C3.20599 13.7129 3.73533 13.9226 4.38452 13.9226C5.27341 13.9226 5.97253 13.4832 6.49189 12.5943L8.09988 13.6829C7.73034 14.3721 7.22097 14.9014 6.58177 15.2809C5.93258 15.6605 5.2035 15.8502 4.38452 15.8502C3.57553 15.8702 2.83645 15.6804 2.16729 15.3109Z" fill="white"/>
<path d="M9.29883 7.6106H11.4062V10.5669H14.3625V7.6106H16.4798V15.7105H14.3725V12.4645H11.4162V15.7105H9.30881V7.6106H9.29883Z" fill="white"/>
<path d="M18.1076 7.6106H23.7306V9.51821H20.215V10.6368H22.7219V12.4046H20.215V13.8128H23.8704V15.7205H18.0977V7.6106H18.1076Z" fill="white"/>
<path d="M26.7571 15.3109C26.088 14.9414 25.5586 14.442 25.1691 13.8028C24.7796 13.1636 24.5898 12.4545 24.5898 11.6655C24.5898 10.8864 24.7796 10.1773 25.1691 9.53812C25.5586 8.89892 26.088 8.38955 26.7571 8.02002C27.4263 7.65048 28.1654 7.4707 28.9744 7.4707C29.7834 7.4707 30.5124 7.66047 31.1616 8.03999C31.8108 8.41952 32.3202 8.95884 32.6797 9.63799L31.0717 10.7266C30.5524 9.83775 29.8433 9.39829 28.9644 9.39829C28.5349 9.39829 28.1554 9.48818 27.8258 9.67794C27.4862 9.86771 27.2266 10.1274 27.0368 10.4769C26.847 10.8165 26.7571 11.216 26.7571 11.6655C26.7571 12.3346 26.9669 12.8839 27.3764 13.2934C27.7859 13.7029 28.3152 13.9127 28.9644 13.9127C29.8533 13.9127 30.5524 13.4732 31.0717 12.5843L32.6797 13.673C32.3102 14.3621 31.8008 14.8914 31.1616 15.271C30.5124 15.6505 29.7834 15.8402 28.9644 15.8402C28.1554 15.8702 27.4263 15.6804 26.7571 15.3109Z" fill="white"/>
<path d="M39.0714 15.7205L35.9853 11.6855V15.7205H33.8779V7.6106H35.9853V11.286L38.6619 7.6106H41.1189L38.3324 11.4658L41.5783 15.7105H39.0714V15.7205Z" fill="white"/>
<path d="M56.8294 0.279651V16H55.541L47.1715 7.88015V15.7204H43.1465V0H44.4349L52.8044 8V0.279651H56.8294Z" fill="url(#paint0_linear_6020_11)"/>
<path d="M58.8164 0.279541H69.2933V3.90501H62.8414V6.85133H68.0848V10.4768H62.8414V15.7202H58.8164V0.279541Z" fill="url(#paint1_linear_6020_11)"/>
<path d="M75.9155 3.90501H71.2812V0.279541H84.5647V3.90501H79.9304V15.7202H75.9055V3.90501H75.9155Z" fill="url(#paint2_linear_6020_11)"/>
<defs>
<linearGradient id="paint0_linear_6020_11" x1="49.9907" y1="0.0011985" x2="49.9907" y2="15.9993" gradientUnits="userSpaceOnUse">
<stop stop-color="#00B076"/>
<stop offset="1" stop-color="#00FF8F"/>
</linearGradient>
<linearGradient id="paint1_linear_6020_11" x1="64.0584" y1="0.281798" x2="64.0584" y2="15.7185" gradientUnits="userSpaceOnUse">
<stop stop-color="#00B076"/>
<stop offset="1" stop-color="#00FF8F"/>
</linearGradient>
<linearGradient id="paint2_linear_6020_11" x1="77.9283" y1="0.281798" x2="77.9283" y2="15.7185" gradientUnits="userSpaceOnUse">
<stop stop-color="#00B076"/>
<stop offset="1" stop-color="#00FF8F"/>
</linearGradient>
</defs>
</svg>
