<svg xmlns="http://www.w3.org/2000/svg" width="226" height="32" fill="none"><path fill="#00D180" fill-rule="evenodd" d="M11.694 30.13c1.225.909 2.782 1.37 4.353 1.37 1.571 0 3.128-.461 4.324-1.384l6.198-5.377c1.643-1.225 2.926-3.776 2.926-5.823V8.957c0-2.22-1.629-4.583-3.719-5.362L18.584.9C17.157.367 14.908.367 13.48.9L6.29 3.595c-2.09.779-3.719 3.142-3.719 5.362v9.974c0 2.032 1.283 4.598 2.926 5.823l6.198 5.377Zm9.75-5.527c1.545-1.376 2.318-3.1 2.318-5.175 0-1.672-.487-3.058-1.46-4.159-.995-1.142-2.191-1.894-3.588-2.254l4.635-6.54V5.334H9.857v3.873h6.984l-4.38 6.127v1.111h2.634c1.397 0 2.455.265 3.175.794.74.508 1.11 1.248 1.11 2.222 0 .995-.338 1.788-1.015 2.38-.677.572-1.555.858-2.635.858-.931 0-1.757-.233-2.476-.698-.698-.466-1.376-1.196-2.032-2.19l-2.984 2.094c.72 1.482 1.746 2.646 3.08 3.492 1.333.847 2.846 1.27 4.54 1.27 2.2 0 4.063-.688 5.586-2.063Z" clip-rule="evenodd"/><path fill="#00D180" d="m59.464 8.16-2.976 7.608-3.648-7.896h-1.32l-3.648 7.896-2.976-7.608h-4.608l6.528 16.128h1.32l4.056-8.28 4.032 8.28h1.32L64.072 8.16h-4.608ZM65.233 24h11.28v-3.72H69.36v-2.76h4.896v-3.456H69.36V11.88h6.864V8.16H65.233V24Zm25.893-4.704c0-1.824-.984-3.12-2.64-3.792.648-.72.96-1.608.96-2.664 0-2.76-2.304-4.68-5.352-4.68h-5.712V24h7.392c3.048 0 5.352-1.968 5.352-4.704ZM83.83 11.64c.984 0 1.584.552 1.584 1.392 0 .84-.6 1.392-1.584 1.392h-1.488V11.64h1.488Zm3.264 7.488c0 .936-.6 1.392-1.584 1.392h-3.168v-2.784h3.168c.984 0 1.584.456 1.584 1.392Zm16.386-.408c0-2.328-1.44-4.056-3.384-4.8l3.144-4.68V8.16H92.56v3.72h4.511l-2.808 4.176v1.056h2.256c1.849 0 2.736.504 2.736 1.632s-.887 1.752-2.135 1.752c-1.225 0-2.065-.6-3-2.016l-2.857 2.016c1.08 2.328 3.264 3.792 6.024 3.792 3.481 0 6.193-2.376 6.193-5.568ZM119.885 24h4.44l-7.2-16.128h-1.32L108.605 24h4.44l.576-1.32h5.688l.576 1.32Zm-2.04-4.632h-2.76l1.392-3.672 1.368 3.672ZM135.17 8.16v7.92l-8.592-8.208h-1.32V24h4.128v-8.04l8.592 8.328h1.32V8.16h-4.128ZM145.167 24h4.128V11.88h4.752V8.16h-13.632v3.72h4.752V24Zm9.998 0h4.128V8.16h-4.128V24Zm16.091-15.84-3.168 7.776-3.192-7.776h-4.68l7.2 16.128h1.32l7.2-16.128h-4.68ZM176.869 24h4.128V8.16h-4.128V24Zm20.603 0-4.176-5.88c1.56-.96 2.496-2.568 2.496-4.512 0-3.288-2.592-5.448-6.12-5.448h-6.216V24h4.128v-4.92h1.704l3.576 4.92h4.608Zm-9.888-12.24h2.112c1.152 0 1.896.72 1.896 1.848 0 1.128-.744 1.872-1.896 1.872h-2.112v-3.72Zm10.26 5.52c0 4.224 2.952 7.008 7.008 7.008 4.008 0 7.008-2.832 7.008-7.008V8.16h-4.128v9.432c0 1.8-1.176 2.904-2.88 2.904s-2.88-1.104-2.88-2.904V8.16h-4.128v9.12Zm15.237 3.456c1.152 2.184 3.456 3.552 6.312 3.552 3.288 0 5.808-1.872 5.808-4.944 0-2.232-1.296-3.624-4.056-4.776l-1.824-.768c-1.032-.408-1.368-.72-1.368-1.296 0-.672.552-1.008 1.416-1.008 1.128 0 1.848.528 2.616 1.68l2.76-2.112c-.96-1.944-2.808-3.192-5.424-3.192-3.24 0-5.544 1.872-5.544 4.68 0 2.136 1.392 3.624 4.008 4.776l1.632.72c1.248.552 1.608.768 1.608 1.464 0 .768-.552 1.152-1.632 1.152-1.608 0-2.592-.792-3.528-2.04l-2.784 2.112Z"/></svg>
