<svg width="226" height="32" viewBox="0 0 226 32" fill="none" xmlns="http://www.w3.org/2000/svg">
<path fill-rule="evenodd" clip-rule="evenodd" d="M11.6941 30.1307C12.9193 31.0388 14.4759 31.5 16.047 31.5C17.6181 31.5 19.1748 31.0388 20.3711 30.1163L26.5689 24.7395C28.2121 23.5144 29.4949 20.9632 29.4949 18.9165V8.95717C29.4949 6.73748 27.8661 4.37365 25.7762 3.59532L18.5838 0.899977C17.1569 0.366674 14.9083 0.366674 13.4814 0.899977L6.28901 3.59532C4.19905 4.37365 2.57031 6.73748 2.57031 8.95717V18.9309C2.57031 20.9632 3.85312 23.5288 5.49627 24.754L11.6941 30.1307ZM21.4443 24.6027C22.9893 23.227 23.7618 21.5022 23.7618 19.4281C23.7618 17.7562 23.275 16.3699 22.3015 15.2694C21.3068 14.1266 20.111 13.3753 18.7142 13.0155L23.3491 6.47586V5.33302H9.85714V9.20599H16.8412L12.4603 15.3329V16.444H15.0952C16.492 16.444 17.5502 16.7086 18.2698 17.2377C19.0105 17.7456 19.3809 18.4863 19.3809 19.4599C19.3809 20.4546 19.0422 21.2482 18.365 21.8408C17.6877 22.4122 16.8095 22.6979 15.7301 22.6979C14.7989 22.6979 13.9735 22.4651 13.2539 21.9995C12.5555 21.5339 11.8783 20.8038 11.2222 19.8091L8.23811 21.9043C8.95768 23.3857 9.98413 24.5497 11.3174 25.3963C12.6508 26.2429 14.164 26.6661 15.8571 26.6661C18.0581 26.6661 19.9205 25.9783 21.4443 24.6027Z" fill="white"/>
<path d="M59.464 8.16L56.488 15.768L52.84 7.872H51.52L47.872 15.768L44.896 8.16H40.288L46.816 24.288H48.136L52.192 16.008L56.224 24.288H57.544L64.072 8.16H59.464ZM65.2328 24H76.5128V20.28H69.3608V17.52H74.2568V14.064H69.3608V11.88H76.2248V8.16H65.2328V24ZM91.1257 19.296C91.1257 17.472 90.1417 16.176 88.4857 15.504C89.1337 14.784 89.4457 13.896 89.4457 12.84C89.4457 10.08 87.1417 8.16 84.0937 8.16H78.3817V24H85.7737C88.8217 24 91.1257 22.032 91.1257 19.296ZM83.8297 11.64C84.8137 11.64 85.4137 12.192 85.4137 13.032C85.4137 13.872 84.8137 14.424 83.8297 14.424H82.3417V11.64H83.8297ZM87.0937 19.128C87.0937 20.064 86.4937 20.52 85.5097 20.52H82.3417V17.736H85.5097C86.4937 17.736 87.0937 18.192 87.0937 19.128ZM103.48 18.72C103.48 16.392 102.04 14.664 100.096 13.92L103.24 9.24V8.16H92.5595V11.88H97.0715L94.2635 16.056V17.112H96.5195C98.3675 17.112 99.2555 17.616 99.2555 18.744C99.2555 19.872 98.3675 20.496 97.1195 20.496C95.8955 20.496 95.0555 19.896 94.1195 18.48L91.2635 20.496C92.3435 22.824 94.5275 24.288 97.2875 24.288C100.768 24.288 103.48 21.912 103.48 18.72ZM119.885 24H124.325L117.125 7.872H115.805L108.605 24H113.045L113.621 22.68H119.309L119.885 24ZM117.845 19.368H115.085L116.477 15.696L117.845 19.368ZM135.17 8.16V16.08L126.578 7.872H125.258V24H129.386V15.96L137.978 24.288H139.298V8.16H135.17ZM145.167 24H149.295V11.88H154.047V8.16H140.415V11.88H145.167V24ZM155.165 24H159.293V8.16H155.165V24ZM171.256 8.16L168.088 15.936L164.896 8.16H160.216L167.416 24.288H168.736L175.936 8.16H171.256ZM176.869 24H180.997V8.16H176.869V24ZM197.472 24L193.296 18.12C194.856 17.16 195.792 15.552 195.792 13.608C195.792 10.32 193.2 8.16 189.672 8.16H183.456V24H187.584V19.08H189.288L192.864 24H197.472ZM187.584 11.76H189.696C190.848 11.76 191.592 12.48 191.592 13.608C191.592 14.736 190.848 15.48 189.696 15.48H187.584V11.76ZM197.844 17.28C197.844 21.504 200.796 24.288 204.852 24.288C208.86 24.288 211.86 21.456 211.86 17.28V8.16H207.732V17.592C207.732 19.392 206.556 20.496 204.852 20.496C203.148 20.496 201.972 19.392 201.972 17.592V8.16H197.844V17.28ZM213.081 20.736C214.233 22.92 216.537 24.288 219.393 24.288C222.681 24.288 225.201 22.416 225.201 19.344C225.201 17.112 223.905 15.72 221.145 14.568L219.321 13.8C218.289 13.392 217.953 13.08 217.953 12.504C217.953 11.832 218.505 11.496 219.369 11.496C220.497 11.496 221.217 12.024 221.985 13.176L224.745 11.064C223.785 9.12 221.937 7.872 219.321 7.872C216.081 7.872 213.777 9.744 213.777 12.552C213.777 14.688 215.169 16.176 217.785 17.328L219.417 18.048C220.665 18.6 221.025 18.816 221.025 19.512C221.025 20.28 220.473 20.664 219.393 20.664C217.785 20.664 216.801 19.872 215.865 18.624L213.081 20.736Z" fill="white"/>
</svg>
