<svg width="157" height="34" viewBox="0 0 157 34" fill="none" xmlns="http://www.w3.org/2000/svg">
    <path d="M46.7815 31.9834H49.2215C50.4935 31.9834 51.0935 31.3194 51.0935 30.3994C51.0935 29.6954 50.7495 29.1674 49.9415 28.9594V28.9434C50.5975 28.6874 50.7975 28.1754 50.7975 27.6874C50.7975 26.8154 50.1895 26.3034 48.9335 26.3034H46.7815V31.9834ZM48.0855 28.5834V27.4714H48.7415C49.2935 27.4714 49.4695 27.6954 49.4695 28.0234C49.4695 28.3994 49.2295 28.5834 48.8135 28.5834H48.0855ZM48.0855 30.8234V29.5994H48.9495C49.4455 29.5994 49.7095 29.8314 49.7095 30.2154C49.7095 30.6154 49.4455 30.8234 48.9975 30.8234H48.0855ZM53.0396 31.9834H54.3996V29.5114L56.2636 26.3034H54.7196L53.7356 28.1914H53.7196L52.7196 26.3034H51.1916L53.0396 29.5114V31.9834ZM61.447 32.0554C62.455 32.0554 63.247 31.5754 63.735 30.9754L62.759 30.1354C62.431 30.5274 61.975 30.7754 61.447 30.7754C60.519 30.7754 59.919 30.0634 59.919 29.1514C59.919 28.1114 60.615 27.5034 61.439 27.5034C61.991 27.5034 62.447 27.7994 62.751 28.1594L63.727 27.3194C63.103 26.5594 62.239 26.2234 61.439 26.2234C59.567 26.2234 58.511 27.5274 58.511 29.1514C58.511 31.0394 59.815 32.0554 61.447 32.0554ZM64.43 31.9834H65.782V29.8394H67.782V31.9834H69.126V26.3034H67.782V28.6554H65.782V26.3034H64.43V31.9834ZM70.1487 31.9834H74.0207V30.7914H71.4527V29.7354H73.3487V28.5834H71.4527V27.4954H73.8527V26.3034H70.1487V31.9834ZM77.4158 32.0554C78.4238 32.0554 79.2158 31.5754 79.7038 30.9754L78.7278 30.1354C78.3998 30.5274 77.9438 30.7754 77.4158 30.7754C76.4878 30.7754 75.8878 30.0634 75.8878 29.1514C75.8878 28.1114 76.5838 27.5034 77.4078 27.5034C77.9598 27.5034 78.4158 27.7994 78.7198 28.1594L79.6958 27.3194C79.0718 26.5594 78.2078 26.2234 77.4078 26.2234C75.5358 26.2234 74.4798 27.5274 74.4798 29.1514C74.4798 31.0394 75.7838 32.0554 77.4158 32.0554ZM80.3987 31.9834H81.7347V30.3434L82.1587 29.8234L83.5187 31.9834H85.1587L83.0387 28.7674L85.0867 26.3034H83.3987L81.7507 28.4794H81.7347V26.3034H80.3987V31.9834ZM85.6956 31.9834H87.0156V28.5754H87.0316L89.2556 31.9834H90.5836V26.3034H89.2636V29.7994L89.2476 29.8074L86.9836 26.3034H85.6956V31.9834ZM91.6097 31.9834H92.9137V29.9594H95.0097V28.7754H92.9137V27.4954H95.4497V26.3034H91.6097V31.9834ZM97.3554 31.9834H98.7154V27.4954H100.203V26.3034H95.8754V27.4954H97.3554V31.9834ZM100.763 32.0554C101.155 32.0554 101.483 31.7434 101.483 31.3514C101.483 30.9594 101.155 30.6394 100.763 30.6394C100.363 30.6394 100.043 30.9594 100.043 31.3514C100.043 31.7434 100.363 32.0554 100.763 32.0554ZM102.353 31.9834H103.721V26.3034H102.353V31.9834ZM107.502 32.0554C109.198 32.0554 110.422 30.8794 110.422 29.1434C110.422 27.3994 109.198 26.2234 107.502 26.2234C105.774 26.2234 104.574 27.4314 104.574 29.1434C104.574 30.8554 105.774 32.0554 107.502 32.0554ZM107.502 30.8154C106.606 30.8154 105.974 30.0714 105.974 29.1434C105.974 28.2154 106.606 27.4714 107.502 27.4714C108.382 27.4714 109.022 28.1994 109.022 29.1434C109.022 30.0874 108.382 30.8154 107.502 30.8154Z" fill="white" fill-opacity="0.5"/>
    <path d="M16.22 6.7834L13.74 13.1234L10.7 6.5434H9.6L6.56 13.1234L4.08 6.7834H0.24L5.68 20.2234H6.78L10.16 13.3234L13.52 20.2234H14.62L20.06 6.7834H16.22ZM21.113 19.9834H30.513V16.8834H24.553V14.5834H28.633V11.7034H24.553V9.8834H30.273V6.7834H21.113V19.9834ZM42.7759 16.0634C42.7759 14.5434 41.9559 13.4634 40.5759 12.9034C41.1159 12.3034 41.3759 11.5634 41.3759 10.6834C41.3759 8.3834 39.4559 6.7834 36.9159 6.7834H32.1559V19.9834H38.3159C40.8559 19.9834 42.7759 18.3434 42.7759 16.0634ZM36.6959 9.6834C37.5159 9.6834 38.0159 10.1434 38.0159 10.8434C38.0159 11.5434 37.5159 12.0034 36.6959 12.0034H35.4559V9.6834H36.6959ZM39.4159 15.9234C39.4159 16.7034 38.9159 17.0834 38.0959 17.0834H35.4559V14.7634H38.0959C38.9159 14.7634 39.4159 15.1434 39.4159 15.9234ZM53.1564 15.5834C53.1564 13.6434 51.9564 12.2034 50.3364 11.5834L52.9564 7.6834V6.7834H44.0564V9.8834H47.8164L45.4764 13.3634V14.2434H47.3564C48.8964 14.2434 49.6364 14.6634 49.6364 15.6034C49.6364 16.5434 48.8964 17.0634 47.8564 17.0634C46.8364 17.0634 46.1364 16.5634 45.3564 15.3834L42.9764 17.0634C43.8764 19.0034 45.6964 20.2234 47.9964 20.2234C50.8964 20.2234 53.1564 18.2434 53.1564 15.5834ZM66.9986 19.9834H70.6986L64.6986 6.5434H63.5986L57.5986 19.9834H61.2986L61.7786 18.8834H66.5186L66.9986 19.9834ZM65.2986 16.1234H62.9986L64.1586 13.0634L65.2986 16.1234ZM79.8222 6.7834V13.3834L72.6622 6.5434H71.5622V19.9834H75.0022V13.2834L82.1622 20.2234H83.2622V6.7834H79.8222ZM88.2381 19.9834H91.6781V9.8834H95.6381V6.7834H84.2781V9.8834H88.2381V19.9834ZM96.6559 19.9834H100.096V6.7834H96.6559V19.9834ZM110.15 6.7834L107.51 13.2634L104.85 6.7834H100.95L106.95 20.2234H108.05L114.05 6.7834H110.15ZM114.914 19.9834H118.354V6.7834H114.914V19.9834ZM132.168 19.9834L128.688 15.0834C129.988 14.2834 130.768 12.9434 130.768 11.3234C130.768 8.5834 128.608 6.7834 125.668 6.7834H120.488V19.9834H123.928V15.8834H125.348L128.328 19.9834H132.168ZM123.928 9.7834H125.688C126.648 9.7834 127.268 10.3834 127.268 11.3234C127.268 12.2634 126.648 12.8834 125.688 12.8834H123.928V9.7834ZM132.564 14.3834C132.564 17.9034 135.024 20.2234 138.404 20.2234C141.744 20.2234 144.244 17.8634 144.244 14.3834V6.7834H140.804V14.6434C140.804 16.1434 139.824 17.0634 138.404 17.0634C136.984 17.0634 136.004 16.1434 136.004 14.6434V6.7834H132.564V14.3834ZM145.347 17.2634C146.307 19.0834 148.227 20.2234 150.607 20.2234C153.347 20.2234 155.447 18.6634 155.447 16.1034C155.447 14.2434 154.367 13.0834 152.067 12.1234L150.547 11.4834C149.687 11.1434 149.407 10.8834 149.407 10.4034C149.407 9.8434 149.867 9.5634 150.587 9.5634C151.527 9.5634 152.127 10.0034 152.767 10.9634L155.067 9.2034C154.267 7.5834 152.727 6.5434 150.547 6.5434C147.847 6.5434 145.927 8.1034 145.927 10.4434C145.927 12.2234 147.087 13.4634 149.267 14.4234L150.627 15.0234C151.667 15.4834 151.967 15.6634 151.967 16.2434C151.967 16.8834 151.507 17.2034 150.607 17.2034C149.267 17.2034 148.447 16.5434 147.667 15.5034L145.347 17.2634Z" fill="#00D180"/>
</svg>
