<svg width="8" height="14" viewBox="0 0 8 14" fill="none" xmlns="http://www.w3.org/2000/svg">
    <path d="M4.78711 9.71338H2.71826C2.72445 9.13818 2.77393 8.65576 2.8667 8.26611C2.95947 7.87028 3.11409 7.51156 3.33057 7.18994C3.55322 6.86833 3.84701 6.52816 4.21191 6.16943C4.49642 5.8973 4.75309 5.64062 4.98193 5.39941C5.21077 5.15202 5.39323 4.89225 5.5293 4.62012C5.66536 4.3418 5.7334 4.02327 5.7334 3.66455C5.7334 3.2749 5.66846 2.94401 5.53857 2.67188C5.40869 2.39974 5.21696 2.19255 4.96338 2.05029C4.71598 1.90804 4.40674 1.83691 4.03564 1.83691C3.7264 1.83691 3.43571 1.89876 3.16357 2.02246C2.89144 2.13997 2.67188 2.32552 2.50488 2.5791C2.33789 2.8265 2.24821 3.1543 2.23584 3.5625H0C0.0123698 2.7832 0.197917 2.1276 0.556641 1.5957C0.915365 1.0638 1.39779 0.664876 2.00391 0.398926C2.61003 0.132975 3.28727 0 4.03564 0C4.86442 0 5.57259 0.142253 6.16016 0.426758C6.74772 0.705078 7.19613 1.11328 7.50537 1.65137C7.8208 2.18327 7.97852 2.8265 7.97852 3.58105C7.97852 4.12533 7.87028 4.62012 7.65381 5.06543C7.43734 5.50456 7.15592 5.91585 6.80957 6.29932C6.46322 6.6766 6.08903 7.05387 5.68701 7.43115C5.34066 7.74658 5.10563 8.08984 4.98193 8.46094C4.85824 8.82585 4.79329 9.24333 4.78711 9.71338ZM2.53271 12.6079C2.53271 12.2739 2.64714 11.9925 2.87598 11.7637C3.10482 11.5286 3.41716 11.4111 3.81299 11.4111C4.20882 11.4111 4.52116 11.5286 4.75 11.7637C4.97884 11.9925 5.09326 12.2739 5.09326 12.6079C5.09326 12.9419 4.97884 13.2264 4.75 13.4614C4.52116 13.6903 4.20882 13.8047 3.81299 13.8047C3.41716 13.8047 3.10482 13.6903 2.87598 13.4614C2.64714 13.2264 2.53271 12.9419 2.53271 12.6079Z" fill="white"/>
</svg>
