<svg width="24" height="24" viewBox="0 0 24 24" fill="none" xmlns="http://www.w3.org/2000/svg">
<path d="M12.0353 23.6249C10.8569 23.6249 9.68945 23.279 8.77058 22.5979L4.1222 18.5653C2.88984 17.6465 1.92773 15.7223 1.92773 14.198V6.71775C1.92773 5.05299 3.14928 3.28012 4.71676 2.69637L10.111 0.674861C11.1812 0.274884 12.8676 0.274884 13.9378 0.674861L19.3321 2.69637C20.8996 3.28012 22.1212 5.05299 22.1212 6.71775V14.1872C22.1212 15.7223 21.159 17.6357 19.9267 18.5545L15.2783 22.5871C14.3811 23.279 13.2136 23.6249 12.0353 23.6249Z" fill="#E45C51"/>
<path d="M11.9951 6.2998V12.9666" stroke="white" stroke-width="2" stroke-linecap="round" stroke-linejoin="round"/>
<path d="M11.9873 16.9668H11.9997" stroke="white" stroke-width="2.5" stroke-linecap="round" stroke-linejoin="round"/>
</svg>
