<svg width="16" height="17" viewBox="0 0 16 17" fill="none" xmlns="http://www.w3.org/2000/svg">
    <path d="M8.00006 15.6567C7.27339 15.6567 6.55339 15.4434 5.98672 15.0234L3.12006 12.8834C2.36006 12.3167 1.76672 11.13 1.76672 10.19V5.23003C1.76672 4.20336 2.52006 3.11003 3.48672 2.75003L6.81339 1.50336C7.47339 1.25669 8.51339 1.25669 9.17339 1.50336L12.5001 2.75003C13.4667 3.11003 14.2201 4.20336 14.2201 5.23003V10.1834C14.2201 11.13 13.6267 12.31 12.8667 12.8767L10.0001 15.0167C9.44672 15.4434 8.72672 15.6567 8.00006 15.6567ZM7.16672 2.44336L3.84006 3.69003C3.27339 3.90336 2.77339 4.62336 2.77339 5.23669V10.19C2.77339 10.8234 3.22006 11.71 3.72006 12.0834L6.58672 14.2234C7.35339 14.7967 8.64672 14.7967 9.42006 14.2234L12.2867 12.0834C12.7934 11.7034 13.2334 10.8234 13.2334 10.19V5.23003C13.2334 4.62336 12.7334 3.90336 12.1667 3.68336L8.84006 2.43669C8.38672 2.27669 7.61339 2.27669 7.16672 2.44336Z" fill="white"/>
    <path d="M7.1067 9.96998C6.98003 9.96998 6.85337 9.92331 6.75337 9.82331L5.68003 8.74998C5.4867 8.55665 5.4867 8.23665 5.68003 8.04331C5.87337 7.84998 6.19337 7.84998 6.3867 8.04331L7.1067 8.76331L9.62003 6.24998C9.81337 6.05665 10.1334 6.05665 10.3267 6.24998C10.52 6.44331 10.52 6.76331 10.3267 6.95665L7.46003 9.82331C7.36003 9.92331 7.23337 9.96998 7.1067 9.96998Z" fill="white"/>
</svg>
