<svg width="16" height="16" viewBox="0 0 16 16" fill="none" xmlns="http://www.w3.org/2000/svg">
    <path fill-rule="evenodd" clip-rule="evenodd" d="M10.1716 0.964562L13.3536 4.14654C13.5488 4.3418 13.5488 4.65839 13.3536 4.85365L10.1716 8.03563C9.97631 8.23089 9.65973 8.23089 9.46447 8.03563C9.2692 7.84037 9.2692 7.52378 9.46447 7.32852L11.7929 5.0001L6 5.0001C4.34315 5.0001 3 6.34324 3 8.0001H2C2 5.79096 3.79086 4.0001 6 4.0001H11.7929L9.46447 1.67167C9.2692 1.47641 9.2692 1.15982 9.46447 0.964562C9.65973 0.7693 9.97631 0.7693 10.1716 0.964562Z" fill="#00D180"/>
    <path fill-rule="evenodd" clip-rule="evenodd" d="M5.32843 15.0357L2.14645 11.8537C1.95118 11.6584 1.95118 11.3419 2.14645 11.1466L5.32843 7.96461C5.52369 7.76935 5.84027 7.76935 6.03553 7.96461C6.2308 8.15988 6.2308 8.47646 6.03553 8.67172L3.70711 11.0001H9.5C11.1569 11.0001 12.5 9.657 12.5 8.00015H13.5C13.5 10.2093 11.7091 12.0001 9.5 12.0001H3.70711L6.03553 14.3286C6.2308 14.5238 6.2308 14.8404 6.03553 15.0357C5.84027 15.2309 5.52369 15.2309 5.32843 15.0357Z" fill="#00D180"/>
</svg>
