<svg width="12" height="12" viewBox="0 0 12 12" fill="none" xmlns="http://www.w3.org/2000/svg">
<path d="M9.66191 4.73438C9.66191 4.73438 9.39041 8.10187 9.23291 9.52037C9.15791 10.1979 8.73941 10.5949 8.05391 10.6074C6.74941 10.6309 5.44341 10.6324 4.13941 10.6049C3.47991 10.5914 3.06841 10.1894 2.99491 9.52388C2.83641 8.09288 2.56641 4.73438 2.56641 4.73438" stroke="white" stroke-linecap="round" stroke-linejoin="round"/>
<path d="M10.354 3.12012H1.875" stroke="white" stroke-linecap="round" stroke-linejoin="round"/>
<path d="M8.72029 3.11999C8.32779 3.11999 7.98979 2.84249 7.91279 2.45799L7.79129 1.84999C7.71629 1.56949 7.46229 1.37549 7.17279 1.37549H5.05629C4.76679 1.37549 4.51279 1.56949 4.43779 1.84999L4.31629 2.45799C4.23929 2.84249 3.90129 3.11999 3.50879 3.11999" stroke="white" stroke-linecap="round" stroke-linejoin="round"/>
</svg>
