<svg width="20" height="20" viewBox="0 0 20 20" fill="none" xmlns="http://www.w3.org/2000/svg">
<rect width="20" height="20" rx="2" fill="#808080" fill-opacity="0.1"/>
<path d="M8.69178 12.304H10.5478L10.6118 11.616C10.6438 11.056 11.2838 10.576 11.9238 9.96796C12.6438 9.27996 13.3478 8.44796 13.3478 7.19996C13.3478 5.10396 11.7478 4.07996 9.95578 4.07996C8.62778 4.07996 7.41178 4.65596 6.67578 5.55196L8.19578 6.94396C8.57978 6.41596 9.18778 6.07996 9.79578 6.07996C10.5478 6.07996 11.0598 6.52796 11.0598 7.32796C11.0598 8.04796 10.5478 8.62396 10.0518 9.16796C9.39578 9.83996 8.67578 10.496 8.69178 11.504V12.304ZM9.66778 16.144C10.3718 16.144 10.9638 15.568 10.9638 14.848C10.9638 14.144 10.3718 13.568 9.66778 13.568C8.93178 13.568 8.33978 14.144 8.33978 14.848C8.33978 15.568 8.93178 16.144 9.66778 16.144Z" fill="#808080"/>
</svg>
