<svg xmlns="http://www.w3.org/2000/svg" width="36" height="37" fill="none"><path fill="#70A3F3" d="M16.627 1.558a1.8 1.8 0 0 1 2.746 0l2.267 2.676a1.8 1.8 0 0 0 1.8.585l3.407-.832A1.8 1.8 0 0 1 29.069 5.6l.261 3.497a1.8 1.8 0 0 0 1.113 1.532l3.245 1.329a1.8 1.8 0 0 1 .849 2.612l-1.844 2.982a1.8 1.8 0 0 0 0 1.894l1.844 2.982a1.8 1.8 0 0 1-.849 2.612l-3.245 1.33a1.8 1.8 0 0 0-1.113 1.531l-.261 3.497a1.8 1.8 0 0 1-2.222 1.614l-3.406-.832a1.8 1.8 0 0 0-1.8.585l-2.268 2.675a1.8 1.8 0 0 1-2.746 0l-2.267-2.675a1.8 1.8 0 0 0-1.8-.585l-3.407.832A1.8 1.8 0 0 1 6.931 31.4l-.261-3.497a1.8 1.8 0 0 0-1.113-1.532l-3.245-1.329a1.8 1.8 0 0 1-.849-2.612l1.844-2.982a1.8 1.8 0 0 0 0-1.894l-1.844-2.982a1.8 1.8 0 0 1 .849-2.612l3.245-1.33A1.8 1.8 0 0 0 6.67 9.099l.261-3.497a1.8 1.8 0 0 1 2.222-1.614l3.406.832a1.8 1.8 0 0 0 1.8-.585l2.268-2.676Z"/><path stroke="#fff" stroke-linecap="round" stroke-linejoin="round" stroke-width="2" d="m24.75 14.563-8.459 9-5.041-5.364"/></svg>
