<svg width="12" height="12" viewBox="0 0 12 12" fill="none" xmlns="http://www.w3.org/2000/svg">
    <path d="M5.65235 0.336314C5.84619 0.148797 6.15381 0.148798 6.34765 0.336315L7.30761 1.26499C7.41846 1.37222 7.57258 1.4223 7.72529 1.4007L9.04778 1.21364C9.31481 1.17587 9.56369 1.35669 9.61028 1.62232L9.84105 2.93789C9.8677 3.0898 9.96295 3.2209 10.0992 3.29319L11.2791 3.91919C11.5173 4.0456 11.6124 4.33816 11.4939 4.58046L10.9073 5.78042C10.8396 5.91897 10.8396 6.08103 10.9073 6.21958L11.4939 7.41954C11.6124 7.66184 11.5173 7.9544 11.2791 8.08081L10.0992 8.70681C9.96295 8.7791 9.8677 8.9102 9.84105 9.06211L9.61028 10.3777C9.56369 10.6433 9.31481 10.8241 9.04778 10.7864L7.72529 10.5993C7.57258 10.5777 7.41846 10.6278 7.30761 10.735L6.34765 11.6637C6.15381 11.8512 5.84619 11.8512 5.65235 11.6637L4.69239 10.735C4.58154 10.6278 4.42742 10.5777 4.27471 10.5993L2.95222 10.7864C2.68519 10.8241 2.43631 10.6433 2.38972 10.3777L2.15895 9.06211C2.1323 8.9102 2.03705 8.7791 1.90081 8.70681L0.720944 8.08081C0.482706 7.9544 0.387646 7.66184 0.506086 7.41954L1.09266 6.21958C1.16039 6.08103 1.16039 5.91897 1.09266 5.78042L0.506086 4.58046C0.387646 4.33816 0.482706 4.0456 0.720944 3.91919L1.90081 3.29319C2.03705 3.2209 2.1323 3.0898 2.15895 2.93789L2.38972 1.62232C2.43631 1.35669 2.68519 1.17587 2.95222 1.21364L4.27471 1.4007C4.42742 1.4223 4.58154 1.37222 4.69239 1.26499L5.65235 0.336314Z" fill="#00D180"/>
    <path d="M8.25 4.5L5.43034 7.5L3.75 5.71218" stroke="white" stroke-linecap="round" stroke-linejoin="round"/>
</svg>
