<svg width="20" height="21" viewBox="0 0 20 21" fill="none" xmlns="http://www.w3.org/2000/svg">
<rect y="0.5" width="20" height="20" rx="2" fill="#F5C300" fill-opacity="0.1"/>
<g clip-path="url(#clip0_16569_9721)">
<path d="M4.58341 8.87506H6.20841V15.3751H4.58341C4.43976 15.3751 4.30198 15.318 4.2004 15.2164C4.09882 15.1148 4.04175 14.9771 4.04175 14.8334V9.41673C4.04175 9.27307 4.09882 9.13529 4.2004 9.03371C4.30198 8.93213 4.43976 8.87506 4.58341 8.87506ZM7.45046 8.17469L10.9171 4.70802C10.9632 4.66181 11.0244 4.63379 11.0895 4.62912C11.1546 4.62444 11.2192 4.64342 11.2714 4.68256L11.7334 5.02923C11.8617 5.12556 11.9587 5.25773 12.012 5.40907C12.0653 5.56042 12.0726 5.72416 12.033 5.87964L11.4084 8.33339H14.8751C15.1624 8.33339 15.4379 8.44753 15.6411 8.6507C15.8443 8.85386 15.9584 9.12941 15.9584 9.41673V10.5564C15.9586 10.698 15.931 10.8382 15.8772 10.9691L14.2007 15.0398C14.1598 15.139 14.0904 15.2239 14.0011 15.2836C13.9119 15.3433 13.807 15.3751 13.6997 15.3751H7.83341C7.68976 15.3751 7.55198 15.318 7.4504 15.2164C7.34882 15.1148 7.29175 14.9771 7.29175 14.8334V8.55764C7.29178 8.414 7.34887 8.27624 7.45046 8.17469Z" fill="#F5C300"/>
</g>
<defs>
<clipPath id="clip0_16569_9721">
<rect width="13" height="13" fill="white" transform="translate(3.5 4)"/>
</clipPath>
</defs>
</svg>
