<svg width="16" height="16" viewBox="0 0 16 16" fill="none" xmlns="http://www.w3.org/2000/svg">
<path d="M13 1.5H3C2.72385 1.5 2.5 1.72385 2.5 2V14C2.5 14.2761 2.72385 14.5 3 14.5H13C13.2761 14.5 13.5 14.2761 13.5 14V2C13.5 1.72385 13.2761 1.5 13 1.5ZM8 12.5C6.067 12.5 4.5 10.933 4.5 9C4.5 7.067 6.067 5.5 8 5.5C9.933 5.5 11.5 7.067 11.5 9C11.5 10.933 9.933 12.5 8 12.5Z" fill="#E6E6E6"/>
<path d="M13 1H3C2.4485 1 2 1.44875 2 2V14C2 14.5513 2.4485 15 3 15H13C13.5515 15 14 14.5513 14 14V2C14 1.44875 13.5515 1 13 1ZM3 14V2H13L13.0007 14H3ZM12 8H11.8684C11.4226 6.27765 9.85975 5 8 5C5.79445 5 4 6.79445 4 9C4 11.2056 5.79445 13 8 13C9.85975 13 11.4226 11.7224 11.8684 10H12C12.2761 10 12.5 9.77635 12.5 9.5V8.5C12.5 8.22365 12.2761 8 12 8ZM8 12C6.3457 12 5 10.6543 5 9C5 7.3457 6.3457 6 8 6C9.3156 6 10.4334 6.85235 10.8371 8.03285C10.642 8.10095 10.5 8.2815 10.5 8.5V9.5C10.5 9.7185 10.642 9.899 10.8371 9.9671C10.4334 11.1476 9.31565 12 8 12ZM8.5 3.5C8.5 3.22365 8.7239 3 9 3H11.5C11.7761 3 12 3.22365 12 3.5C12 3.77635 11.7761 4 11.5 4H9C8.7239 4 8.5 3.77635 8.5 3.5Z" fill="#808080"/>
</svg>
