<svg width="40" height="40" viewBox="0 0 40 40" fill="none" xmlns="http://www.w3.org/2000/svg">
<g clip-path="url(#clip0_16314_9433)">
<rect width="40" height="40" fill="black"/>
<g opacity="0.86">
<g clip-path="url(#clip1_16314_9433)">
<path opacity="0.4" d="M36 13.296V23.0399L33.392 20.7999C32.144 19.728 30.128 19.728 28.88 20.7999L22.224 26.5119C20.976 27.5839 18.96 27.5839 17.712 26.5119L17.168 26.0639C16.032 25.0719 14.224 24.9759 12.944 25.8399L5.072 31.1199L4.896 31.2479C4.304 29.9679 4 28.4479 4 26.7039V13.296C4 7.47199 7.47199 4 13.296 4H26.704C32.528 4 36 7.47199 36 13.296Z" fill="#00D180"/>
<path d="M15.2001 17.408C17.3032 17.408 19.0081 15.7031 19.0081 13.6C19.0081 11.4969 17.3032 9.79199 15.2001 9.79199C13.097 9.79199 11.3921 11.4969 11.3921 13.6C11.3921 15.7031 13.097 17.408 15.2001 17.408Z" fill="#00D180"/>
<path d="M36 23.0401V26.7041C36 32.5281 32.528 36 26.704 36H13.296C9.21599 36 6.27199 34.2881 4.896 31.2481L5.072 31.1201L12.944 25.8401C14.224 24.9761 16.032 25.0721 17.168 26.0641L17.712 26.5121C18.96 27.5841 20.976 27.5841 22.224 26.5121L28.88 20.8001C30.128 19.7281 32.144 19.7281 33.392 20.8001L36 23.0401Z" fill="#00D180"/>
</g>
</g>
</g>
<defs>
<clipPath id="clip0_16314_9433">
<rect width="40" height="40" rx="20" fill="white"/>
</clipPath>
<clipPath id="clip1_16314_9433">
<rect x="4" y="4" width="32" height="32" rx="16" fill="white"/>
</clipPath>
</defs>
</svg>
